<svg width="76" height="76" viewBox="0 0 76 76" fill="none" xmlns="http://www.w3.org/2000/svg">
<circle cx="38" cy="38" r="38" fill="#A3E714"/>
<path d="M50.7215 50.0716C45.9903 40.6516 41.4925 34.9444 41.4925 34.9444L41.4712 25.1213H43.0837V23.53H31.9027V25.1213L33.2181 25.1637L33.2605 35.1566C33.2605 35.1566 27.0442 44.2796 24.1588 50.0928C21.2733 55.9061 26.6411 57.2639 26.6411 57.2639H47.9846C53.3736 55.6515 50.7215 50.0716 50.7215 50.0716ZM46.0327 54.5695C43.7838 54.6543 28.5081 54.5695 28.5081 54.5695C28.5081 54.5695 25.0923 53.7632 26.344 50.1353C27.5746 46.5073 31.6481 40.5243 31.6481 40.5243H43.0625C43.0625 40.5243 47.8786 48.3955 48.409 50.1353C48.9606 51.8538 48.3029 54.4634 46.0327 54.5695Z" fill="#181818"/>
<path d="M40.3479 48.2043C41.4376 48.2043 42.321 47.3209 42.321 46.2312C42.321 45.1415 41.4376 44.2581 40.3479 44.2581C39.2582 44.2581 38.3748 45.1415 38.3748 46.2312C38.3748 47.3209 39.2582 48.2043 40.3479 48.2043Z" fill="#181818"/>
<path d="M33.3249 49.7104C34.0045 49.7104 34.5554 49.1594 34.5554 48.4798C34.5554 47.8002 34.0045 47.2493 33.3249 47.2493C32.6453 47.2493 32.0944 47.8002 32.0944 48.4798C32.0944 49.1594 32.6453 49.7104 33.3249 49.7104Z" fill="#181818"/>
<path d="M36.8884 53.084C37.2517 53.084 37.5461 52.7895 37.5461 52.4263C37.5461 52.063 37.2517 51.7686 36.8884 51.7686C36.5252 51.7686 36.2307 52.063 36.2307 52.4263C36.2307 52.7895 36.5252 53.084 36.8884 53.084Z" fill="#181818"/>
<path d="M39.4973 16.2311C40.4815 16.2311 41.2794 15.4332 41.2794 14.4489C41.2794 13.4647 40.4815 12.6667 39.4973 12.6667C38.513 12.6667 37.7151 13.4647 37.7151 14.4489C37.7151 15.4332 38.513 16.2311 39.4973 16.2311Z" fill="#181818"/>
<path d="M34.5133 18.7138C35.1343 18.7138 35.6377 18.2103 35.6377 17.5893C35.6377 16.9683 35.1343 16.4648 34.5133 16.4648C33.8922 16.4648 33.3888 16.9683 33.3888 17.5893C33.3888 18.2103 33.8922 18.7138 34.5133 18.7138Z" fill="#181818"/>
<path d="M37.717 20.6227C38.0451 20.6227 38.311 20.3567 38.311 20.0286C38.311 19.7005 38.0451 19.4346 37.717 19.4346C37.3889 19.4346 37.1229 19.7005 37.1229 20.0286C37.1229 20.3567 37.3889 20.6227 37.717 20.6227Z" fill="#181818"/>
</svg>
