<svg width="177" height="57" viewBox="0 0 177 57" fill="none" xmlns="http://www.w3.org/2000/svg">
<path fill-rule="evenodd" clip-rule="evenodd" d="M76.9385 22.9069C76.9385 22.5364 77.0093 22.2372 77.158 22.0092C77.3066 21.7812 77.5615 21.66 77.9155 21.66C78.2412 21.66 78.4819 21.774 78.6589 22.0092C78.8288 22.2372 78.9775 22.5435 79.1191 22.9069L79.1899 23.4698C79.813 22.8642 80.5351 22.3868 81.3422 22.0377C82.1494 21.6885 83.0202 21.5175 83.9618 21.5175C84.9247 21.5175 85.8168 21.6957 86.6593 22.0662C87.4948 22.4295 88.224 22.9283 88.847 23.5553C89.4701 24.1823 89.9657 24.9233 90.3268 25.7712C90.6878 26.619 90.8719 27.5239 90.8719 28.4929C90.8719 29.4619 90.6949 30.3597 90.3268 31.2075C89.9657 32.0483 89.4772 32.7893 88.847 33.4234C88.224 34.0575 87.4948 34.5563 86.6593 34.9197C85.8239 35.283 84.9318 35.4683 83.9689 35.4683C83.1122 35.4683 82.298 35.3187 81.5334 35.0265C80.7617 34.7273 80.082 34.314 79.466 33.7868V38.9595C79.466 39.3229 79.3528 39.6293 79.1262 39.8858C78.9067 40.1423 78.6023 40.2634 78.227 40.2634C77.8518 40.2634 77.5403 40.1352 77.2996 39.8858C77.0518 39.6293 76.9314 39.3229 76.9314 38.9667V22.9069H76.9385ZM79.551 28.5C79.551 29.1057 79.6643 29.6828 79.8979 30.2172C80.1316 30.7587 80.4431 31.2289 80.8396 31.635C81.236 32.0412 81.7033 32.3618 82.2414 32.604C82.7724 32.8463 83.3459 32.9603 83.9548 32.9603C84.5778 32.9603 85.1513 32.8463 85.6823 32.604C86.2204 32.3618 86.6876 32.0412 87.0841 31.635C87.4806 31.2289 87.7921 30.7587 88.0187 30.2172C88.2452 29.6828 88.3585 29.1057 88.3585 28.5C88.3585 27.8873 88.2452 27.3102 88.0187 26.7758C87.7921 26.2343 87.4806 25.764 87.0841 25.365C86.6876 24.966 86.2204 24.6454 85.6823 24.4174C85.1513 24.1823 84.5707 24.0683 83.9548 24.0683C83.3459 24.0683 82.7724 24.1823 82.2414 24.4174C81.7033 24.6525 81.236 24.966 80.8396 25.365C80.4431 25.7569 80.1316 26.2343 79.8979 26.7758C79.6714 27.3102 79.551 27.8944 79.551 28.5ZM93.3782 28.4929C93.3782 27.5239 93.5623 26.619 93.9234 25.7712C94.2845 24.9233 94.7801 24.1823 95.4173 23.5553C96.0474 22.9283 96.7837 22.4295 97.6262 22.0662C98.4688 21.7028 99.3679 21.5175 100.324 21.5175C101.244 21.5175 102.115 21.6885 102.936 22.0377C103.758 22.3797 104.48 22.8499 105.11 23.4342L105.181 22.914C105.322 22.5507 105.471 22.2443 105.641 22.0163C105.818 21.7812 106.059 21.6672 106.37 21.6672C106.738 21.6672 107 21.7812 107.149 22.0163C107.298 22.2443 107.368 22.5435 107.368 22.914V34.0005C107.368 34.3639 107.241 34.6703 106.993 34.9197C106.745 35.1762 106.434 35.2973 106.066 35.2973C105.705 35.2973 105.407 35.169 105.181 34.9197C104.954 34.6632 104.834 34.3568 104.834 34.0005V33.63C104.211 34.1858 103.524 34.6275 102.752 34.9695C101.98 35.3044 101.173 35.4754 100.317 35.4754C99.3679 35.4754 98.4688 35.2902 97.6192 34.9268C96.7766 34.5634 96.0403 34.0647 95.4102 33.4305C94.773 32.7964 94.2845 32.0554 93.9163 31.2147C93.5623 30.3668 93.3782 29.4619 93.3782 28.4929ZM95.9058 28.5C95.9058 29.1057 96.0191 29.6828 96.2527 30.2172C96.4864 30.7587 96.7979 31.2289 97.1944 31.635C97.5908 32.0412 98.0652 32.3618 98.5962 32.604C99.1343 32.8463 99.7078 32.9603 100.317 32.9603C100.94 32.9603 101.52 32.8463 102.058 32.604C102.596 32.3618 103.064 32.0412 103.46 31.635C103.857 31.2289 104.175 30.7587 104.402 30.2172C104.628 29.6828 104.742 29.1057 104.742 28.5C104.742 27.8873 104.628 27.3102 104.402 26.7758C104.175 26.2343 103.857 25.764 103.46 25.365C103.064 24.966 102.596 24.6454 102.058 24.4174C101.52 24.1823 100.94 24.0683 100.317 24.0683C99.7078 24.0683 99.1343 24.1823 98.5962 24.4174C98.0581 24.6525 97.5908 24.966 97.1944 25.365C96.7979 25.7569 96.4793 26.2343 96.2527 26.7758C96.0262 27.3102 95.9058 27.8944 95.9058 28.5ZM111.319 22.9069C111.319 22.5364 111.397 22.2372 111.546 22.0092C111.694 21.7812 111.949 21.66 112.31 21.66C112.622 21.66 112.884 21.7812 113.082 22.0234C113.28 22.2657 113.443 22.5578 113.556 22.9212L113.705 24.2393C114.229 23.4698 114.88 22.857 115.645 22.3868C116.417 21.9237 117.316 21.6885 118.356 21.6885H118.427C118.831 21.6885 119.157 21.8097 119.39 22.0519C119.624 22.2942 119.737 22.5934 119.737 22.9568C119.737 23.3202 119.61 23.6265 119.355 23.8759C119.1 24.1182 118.788 24.2393 118.427 24.2393H118.356C117.733 24.2393 117.16 24.3533 116.629 24.5955C116.098 24.8378 115.631 25.1584 115.234 25.5717C114.838 25.9778 114.519 26.4623 114.271 27.018C114.031 27.5738 113.889 28.1652 113.847 28.785V34.0005C113.847 34.3639 113.733 34.6703 113.5 34.9197C113.273 35.1762 112.976 35.2973 112.615 35.2973C112.239 35.2973 111.928 35.169 111.687 34.9197C111.439 34.6632 111.312 34.3568 111.312 34.0005V22.9069H111.319ZM126.477 21.6672H128.346C128.707 21.6672 129.005 21.7883 129.253 22.0305C129.493 22.2799 129.614 22.5792 129.614 22.9283C129.614 23.2917 129.493 23.598 129.253 23.8474C129.005 24.0897 128.707 24.2108 128.346 24.2108H126.477V34.0148C126.477 34.2 126.449 34.371 126.385 34.5278C126.321 34.6845 126.237 34.8199 126.123 34.9339C126.01 35.0479 125.883 35.1405 125.734 35.2047C125.585 35.2688 125.422 35.2973 125.245 35.2973C124.898 35.2973 124.601 35.1762 124.353 34.9339C124.105 34.6917 123.978 34.3853 123.978 34.0148V24.2108L122.668 24.1965C122.491 24.1965 122.321 24.1609 122.173 24.0968C122.017 24.0255 121.882 23.9329 121.762 23.8189C121.649 23.7049 121.557 23.5624 121.493 23.4128C121.429 23.2632 121.394 23.0993 121.394 22.9283C121.394 22.5792 121.514 22.2799 121.755 22.0377C122.003 21.7954 122.3 21.6743 122.668 21.6743H123.978V18.9454C123.978 18.5963 124.105 18.3042 124.353 18.0548C124.601 17.8125 124.898 17.6914 125.259 17.6914C125.606 17.6914 125.897 17.8125 126.13 18.0548C126.364 18.297 126.477 18.5892 126.477 18.9454V21.6672ZM132.134 22.9069C132.134 22.5364 132.212 22.2372 132.361 22.0092C132.509 21.7812 132.764 21.66 133.125 21.66C133.437 21.66 133.699 21.7812 133.897 22.0234C134.095 22.2657 134.258 22.572 134.371 22.9354L134.485 24.0327C135.009 23.2774 135.66 22.6647 136.446 22.2087C137.225 21.7455 138.11 21.5175 139.108 21.5175C140.028 21.5175 140.85 21.6957 141.565 22.0448C142.28 22.3939 142.889 22.8713 143.377 23.4769C143.866 24.0897 144.234 24.795 144.489 25.6073C144.744 26.4267 144.864 27.2959 144.864 28.2222V34.086C144.864 34.4494 144.744 34.7415 144.503 34.9767C144.262 35.2118 143.972 35.3258 143.618 35.3258C143.264 35.3258 142.967 35.2118 142.705 34.9767C142.45 34.7415 142.329 34.4423 142.329 34.086V28.3077C142.329 28.2222 142.336 28.1509 142.358 28.101C142.336 27.5453 142.244 27.018 142.074 26.5264C141.905 26.0348 141.664 25.6073 141.352 25.2368C141.041 24.8734 140.673 24.5813 140.227 24.3747C139.788 24.168 139.285 24.0612 138.733 24.0612C138.18 24.0612 137.664 24.1752 137.175 24.4103C136.694 24.6454 136.269 24.9589 135.908 25.3508C135.547 25.7427 135.256 26.1987 135.037 26.7188C134.817 27.2389 134.69 27.7733 134.648 28.329V33.9934C134.648 34.3568 134.534 34.6632 134.301 34.9125C134.074 35.169 133.777 35.2902 133.416 35.2902C133.04 35.2902 132.736 35.1619 132.488 34.9125C132.24 34.656 132.113 34.3497 132.113 33.9934V22.9069H132.134ZM150.726 29.6258C150.825 30.1103 151.002 30.5592 151.257 30.9724C151.512 31.3785 151.824 31.7277 152.185 32.0198C152.546 32.3119 152.956 32.547 153.424 32.7109C153.884 32.8748 154.365 32.9603 154.882 32.9603C155.491 32.9603 156.057 32.8605 156.581 32.6539C157.105 32.4473 157.537 32.1552 157.877 31.7775C158.097 31.6137 158.316 31.5068 158.528 31.4783C158.734 31.4427 158.932 31.464 159.13 31.5353C159.258 31.5852 159.371 31.6493 159.463 31.7419C159.562 31.8345 159.647 31.9414 159.725 32.0554C159.888 32.2977 159.966 32.5755 159.944 32.889C159.923 33.2025 159.767 33.4804 159.477 33.7369C159.243 33.972 158.982 34.1929 158.67 34.4067C158.366 34.6204 158.019 34.8057 157.643 34.9624C157.268 35.1192 156.85 35.2403 156.39 35.3329C155.937 35.4255 155.427 35.4754 154.875 35.4754C153.912 35.4754 153.013 35.2902 152.171 34.9268C151.328 34.5634 150.592 34.0647 149.962 33.4377C149.331 32.8107 148.836 32.0697 148.475 31.2218C148.114 30.3739 147.93 29.469 147.93 28.5C147.93 27.531 148.114 26.6262 148.475 25.7783C148.836 24.9304 149.331 24.1894 149.962 23.5624C150.592 22.9354 151.328 22.4367 152.171 22.0733C153.013 21.7099 153.912 21.5247 154.875 21.5247C155.824 21.5247 156.723 21.7028 157.566 22.0662C158.408 22.4295 159.144 22.914 159.774 23.541C160.405 24.168 160.9 24.8948 161.268 25.7427C161.637 26.5834 161.828 27.4812 161.835 28.4359C161.835 28.785 161.721 29.0772 161.495 29.298C161.268 29.5189 160.964 29.6329 160.596 29.6329H150.726V29.6258ZM159.272 27.5168C159.187 27.0038 159.01 26.5335 158.748 26.1203C158.486 25.6999 158.167 25.3365 157.785 25.0302C157.403 24.7238 156.964 24.4887 156.482 24.3177C156.001 24.1467 155.484 24.0612 154.939 24.0612C154.387 24.0612 153.87 24.1467 153.381 24.3248C152.9 24.4958 152.468 24.7309 152.086 25.0444C151.71 25.3437 151.399 25.7142 151.151 26.1345C150.903 26.5549 150.733 27.018 150.648 27.5168H159.272ZM165.042 22.9069C165.042 22.5364 165.12 22.2372 165.269 22.0092C165.417 21.7812 165.672 21.66 166.033 21.66C166.345 21.66 166.607 21.7812 166.805 22.0234C167.003 22.2657 167.166 22.5578 167.279 22.9212L167.428 24.2393C167.952 23.4698 168.603 22.857 169.368 22.3868C170.14 21.9237 171.039 21.6885 172.08 21.6885H172.15C172.554 21.6885 172.88 21.8097 173.113 22.0519C173.347 22.2942 173.46 22.5934 173.46 22.9568C173.46 23.3202 173.333 23.6265 173.078 23.8759C172.823 24.1182 172.511 24.2393 172.15 24.2393H172.08C171.456 24.2393 170.883 24.3533 170.352 24.5955C169.821 24.8378 169.354 25.1584 168.957 25.5717C168.561 25.9778 168.242 26.4623 167.994 27.018C167.754 27.5738 167.612 28.1652 167.57 28.785V34.0005C167.57 34.3639 167.456 34.6703 167.223 34.9197C166.996 35.1762 166.699 35.2973 166.338 35.2973C165.962 35.2973 165.651 35.169 165.41 34.9197C165.162 34.6632 165.035 34.3568 165.035 34.0005V22.9069H165.042Z" fill="white"/>
<path fill-rule="evenodd" clip-rule="evenodd" d="M51.7549 40.1209C52.385 40.0425 53.0434 39.9285 53.709 39.7646L56.0524 43.8473C56.3498 44.4101 56.2153 44.8376 55.6772 45.1369C55.4719 45.2723 55.2453 45.3079 54.9904 45.2509C54.7285 45.1725 54.5373 45.0229 54.417 44.802L51.7549 40.1209Z" fill="white"/>
<path fill-rule="evenodd" clip-rule="evenodd" d="M51.7478 40.0853C52.0593 40.0497 52.385 39.9998 52.7107 39.9428C53.0364 39.8858 53.3691 39.8145 53.7019 39.729L53.7302 39.7219C54.5019 41.0685 55.2736 42.5221 56.0878 43.8331C56.2365 44.1252 56.279 44.3817 56.2153 44.6025C56.1516 44.8305 55.9746 45.0158 55.6984 45.1726C55.5922 45.2438 55.479 45.2866 55.3586 45.3079C55.2382 45.3293 55.1179 45.3222 54.9834 45.2937C54.8488 45.2581 54.7285 45.1939 54.6294 45.1156C54.5302 45.0372 54.4453 44.9374 54.3816 44.8234L51.6912 40.0924L51.7478 40.0853ZM52.7248 40.014C52.4204 40.071 52.116 40.1138 51.8186 40.1494L54.4524 44.7807C54.509 44.8875 54.5869 44.9731 54.6789 45.0443C54.771 45.1156 54.8772 45.1654 55.0046 45.2082C55.125 45.2367 55.2382 45.2438 55.3515 45.2224C55.4577 45.2011 55.5639 45.1654 55.663 45.1013C55.925 44.9588 56.0878 44.7878 56.1445 44.5812C56.2011 44.3746 56.1657 44.1394 56.0241 43.8687L53.7019 39.8145C53.3691 39.8929 53.0434 39.957 52.7248 40.014Z" fill="white"/>
<path fill-rule="evenodd" clip-rule="evenodd" d="M55.2382 45.7995C55.5002 45.7995 55.7409 45.7354 55.9604 45.6C56.3144 45.4005 56.541 45.1084 56.6472 44.7094C56.7675 44.3318 56.725 43.9542 56.5126 43.5837L53.9851 39.1234L53.7798 39.1875C52.9018 39.4084 52.0735 39.558 51.2876 39.6293L50.8628 39.672L53.9355 45.0657C54.1408 45.4219 54.4453 45.6499 54.863 45.7568C54.9763 45.7853 55.1037 45.7995 55.2382 45.7995Z" fill="white"/>
<path fill-rule="evenodd" clip-rule="evenodd" d="M55.2382 45.7639C55.3657 45.7639 55.486 45.7496 55.6064 45.714C55.7268 45.6784 55.84 45.6356 55.9462 45.5715C56.1162 45.4789 56.2578 45.3577 56.371 45.2081C56.4843 45.0656 56.5622 44.8946 56.6118 44.6951C56.6684 44.5099 56.6896 44.3246 56.6684 44.1465C56.6472 43.9612 56.5834 43.7831 56.4843 43.5979L53.9709 39.1661L53.7939 39.2231C53.355 39.33 52.9231 39.4226 52.5054 39.501C52.0876 39.5722 51.6841 39.6292 51.2947 39.6649L50.9336 39.7005L53.978 45.0442C54.0771 45.2152 54.2046 45.3577 54.3532 45.4717C54.5019 45.5857 54.6789 45.6641 54.8842 45.714C54.9409 45.7282 54.9975 45.7425 55.0542 45.7496C55.1108 45.7567 55.1745 45.7639 55.2382 45.7639ZM55.6276 45.7924C55.5073 45.828 55.3728 45.8422 55.2453 45.8422C55.1745 45.8422 55.1108 45.8351 55.04 45.828C54.9763 45.8209 54.9126 45.8066 54.8559 45.7924C54.6435 45.7354 54.4594 45.6499 54.3037 45.5359C54.1479 45.4147 54.0134 45.2651 53.9072 45.087L50.8062 39.6435C50.9548 39.6292 51.1531 39.6221 51.2876 39.5936C51.677 39.558 52.0806 39.501 52.4912 39.4297C52.9089 39.3585 53.3337 39.2659 53.7727 39.1519L54.0063 39.0735L56.548 43.5622C56.6542 43.7546 56.718 43.947 56.7463 44.1394C56.7675 44.3317 56.7534 44.5241 56.6896 44.7236C56.633 44.9302 56.548 45.1084 56.4348 45.258C56.3144 45.4076 56.1657 45.5359 55.9887 45.6356C55.8684 45.7069 55.748 45.7567 55.6276 45.7924Z" fill="white"/>
<path fill-rule="evenodd" clip-rule="evenodd" d="M59.9533 44.802C60.0737 45.0229 60.2719 45.1725 60.5339 45.2509C60.7817 45.3079 61.0083 45.2723 61.2207 45.1369C61.4685 45.0015 61.6171 44.8091 61.6809 44.5598C61.7587 44.3104 61.7233 44.0681 61.5888 43.8473L58.1479 37.791C57.5886 38.1615 57.0435 38.475 56.4983 38.7244L59.9533 44.802Z" fill="white"/>
<path fill-rule="evenodd" clip-rule="evenodd" d="M59.9817 44.7806C60.0383 44.8875 60.1162 44.973 60.2082 45.0443C60.3003 45.1155 60.4135 45.1725 60.541 45.2081C60.6613 45.2366 60.7746 45.2438 60.8808 45.2224C60.987 45.201 61.0932 45.1654 61.1923 45.0941C61.3127 45.03 61.4047 44.9516 61.4826 44.859C61.5534 44.7664 61.603 44.6666 61.6313 44.5455C61.6667 44.4244 61.6808 44.3104 61.6667 44.1964C61.6525 44.0824 61.6101 43.9755 61.5463 43.8686L58.1267 37.8409C57.8576 38.019 57.5957 38.1829 57.3337 38.3325C57.0718 38.4821 56.8098 38.6175 56.5479 38.7386L59.9817 44.7806ZM60.1657 45.1084C60.0666 45.03 59.9816 44.9303 59.9179 44.8163L56.4417 38.6959L56.477 38.6816C56.7461 38.5605 57.0222 38.418 57.2912 38.2613C57.5674 38.1045 57.8435 37.9335 58.1196 37.7554L58.155 37.734L61.6171 43.8259C61.6879 43.9399 61.7304 44.061 61.7446 44.1821C61.7587 44.3104 61.7517 44.4386 61.7092 44.5669C61.6809 44.6951 61.6242 44.8091 61.5463 44.9089C61.4685 45.0086 61.3622 45.0941 61.2348 45.1654C61.1286 45.2366 61.0083 45.2794 60.895 45.3008C60.7746 45.3221 60.6543 45.315 60.5197 45.2865C60.3852 45.2509 60.2649 45.1868 60.1657 45.1084Z" fill="white"/>
<path fill-rule="evenodd" clip-rule="evenodd" d="M60.7748 45.7995C60.6403 45.7995 60.52 45.7853 60.3996 45.7568C59.989 45.6499 59.6774 45.4219 59.4721 45.0657L55.741 38.475L56.0029 38.3468C56.6826 38.0547 57.3694 37.6628 58.0703 37.1854L58.3181 37.0144L62.0422 43.5837C62.2475 43.9399 62.297 44.3175 62.1908 44.7094C62.0917 45.0942 61.851 45.3934 61.4899 45.6C61.2775 45.7354 61.0368 45.7995 60.7748 45.7995Z" fill="white"/>
<path fill-rule="evenodd" clip-rule="evenodd" d="M60.7746 45.8423C60.7038 45.8423 60.6401 45.8352 60.5764 45.828C60.5126 45.8209 60.4489 45.8066 60.3923 45.7924C60.1799 45.7354 59.9958 45.6499 59.84 45.5359C59.6843 45.4148 59.5498 45.2652 59.4436 45.087L55.6982 38.4608C55.7903 38.418 55.9106 38.3468 56.0027 38.3111C56.3425 38.1615 56.6824 37.9905 57.0293 37.7981C57.3762 37.6058 57.716 37.392 58.063 37.1569L58.3462 36.9574L62.0915 43.5623C62.1977 43.7475 62.2614 43.9328 62.2897 44.1252C62.3181 44.3175 62.3039 44.517 62.2472 44.7165C62.1977 44.916 62.1127 45.087 61.9924 45.2367C61.872 45.3934 61.7163 45.5217 61.5322 45.6357C61.4189 45.6998 61.2985 45.7497 61.1711 45.7853C61.0366 45.8209 60.9091 45.8423 60.7746 45.8423ZM60.5834 45.7497C60.6472 45.7568 60.7038 45.7639 60.7746 45.7639C60.902 45.7639 61.0224 45.7497 61.1428 45.714C61.2631 45.6784 61.3764 45.6357 61.4826 45.5715C61.6596 45.4647 61.8083 45.3435 61.9216 45.1939C62.0348 45.0514 62.1127 44.8875 62.1623 44.7023C62.2119 44.5099 62.226 44.3247 62.2048 44.1394C62.1835 43.9542 62.1198 43.776 62.0207 43.5979L58.3178 37.0714L58.1054 37.221C57.7585 37.4561 57.4045 37.677 57.0647 37.8694C56.7178 38.0618 56.3708 38.2328 56.031 38.3824L55.8044 38.4964L59.5073 45.0514C59.6064 45.2224 59.7268 45.3649 59.8825 45.4789C60.0312 45.5929 60.2082 45.6713 60.4135 45.7212C60.4631 45.7354 60.5197 45.7425 60.5834 45.7497Z" fill="white"/>
<path fill-rule="evenodd" clip-rule="evenodd" d="M50.006 13.2026C53.3619 13.2026 56.2151 14.3996 58.5869 16.7794C60.9516 19.1734 62.1411 22.059 62.1411 25.4291C62.1411 28.7921 60.9516 31.6635 58.5869 34.0433C56.2151 36.4301 53.3619 37.62 50.006 37.62C49.39 37.62 48.6962 37.563 47.9386 37.449C47.4218 37.3564 47.1598 37.0429 47.1598 36.4943C47.1598 36.195 47.2731 35.9456 47.4926 35.7604C47.6908 35.5823 47.9386 35.5181 48.243 35.5538C48.8165 35.6749 49.4042 35.7319 50.006 35.7319C52.8309 35.7319 55.2452 34.7273 57.2346 32.7109C59.2383 30.7016 60.2366 28.272 60.2366 25.4363C60.2366 22.5863 59.2383 20.1495 57.2346 18.1403C55.2381 16.1096 52.8238 15.0979 50.006 15.0979C47.181 15.0979 44.7738 16.1096 42.7702 18.1403C40.7736 20.1495 39.7754 22.5863 39.7754 25.4363V44.2605C39.7754 44.5384 39.6762 44.7735 39.4922 44.973C39.3152 45.1796 39.0957 45.2865 38.8266 45.2865C38.5788 45.2865 38.3523 45.1796 38.1682 44.973C37.9912 44.7735 37.9062 44.5384 37.9062 44.2605V25.4291C37.9062 22.059 39.0886 19.1734 41.4604 16.7794C43.8251 14.3996 46.6784 13.2026 50.006 13.2026Z" fill="white"/>
<path fill-rule="evenodd" clip-rule="evenodd" d="M50.006 13.167C51.691 13.167 53.2486 13.4662 54.6788 14.0647C56.1089 14.6632 57.4187 15.561 58.6082 16.7509C59.7976 17.955 60.6826 19.2802 61.2773 20.7266C61.872 22.173 62.1694 23.7405 62.1694 25.4291C62.1694 27.1177 61.872 28.6781 61.2773 30.1174C60.6826 31.5566 59.7905 32.8747 58.6082 34.0646C57.4187 35.2616 56.1089 36.1594 54.6788 36.7579C53.2415 37.3564 51.691 37.6556 50.006 37.6556C49.6944 37.6556 49.3688 37.6414 49.0218 37.6129C48.6749 37.5844 48.3138 37.5416 47.9315 37.4846C47.6625 37.4347 47.4642 37.3279 47.3226 37.164C47.1881 37.0001 47.1244 36.7721 47.1244 36.4942C47.1244 36.3375 47.1527 36.195 47.2094 36.0667C47.266 35.9385 47.351 35.8245 47.4642 35.7319C47.5704 35.6392 47.6837 35.5751 47.8182 35.5395C47.9457 35.5039 48.0944 35.4967 48.2501 35.5181C48.5333 35.5751 48.8236 35.625 49.1139 35.6535C49.4042 35.682 49.7015 35.6962 49.9989 35.6962C51.4078 35.6962 52.7105 35.4469 53.9141 34.941C55.1177 34.4422 56.2151 33.687 57.2063 32.6824C58.2046 31.6849 58.948 30.5805 59.4507 29.3692C59.9463 28.158 60.2012 26.847 60.2012 25.4291C60.2012 24.0112 59.9534 22.6931 59.4507 21.4819C58.9551 20.2706 58.2046 19.1662 57.2063 18.1687C56.2151 17.157 55.1177 16.4017 53.9141 15.8959C52.7105 15.39 51.4078 15.1406 49.9989 15.1406C48.59 15.1406 47.2872 15.39 46.0907 15.8959C44.8871 16.4017 43.7897 17.157 42.7914 18.1687C41.8002 19.1662 41.0498 20.2777 40.5542 21.489C40.0586 22.7002 39.8108 24.0184 39.8108 25.4362V44.2605C39.8108 44.403 39.7824 44.5384 39.7329 44.6595C39.6833 44.7806 39.6125 44.8946 39.5134 44.9944C39.4214 45.1012 39.3152 45.1796 39.2019 45.2366C39.0886 45.2936 38.9612 45.3221 38.8266 45.3221C38.6992 45.3221 38.5718 45.2936 38.4585 45.2366C38.3452 45.1796 38.239 45.1012 38.1399 44.9944C38.0478 44.8946 37.9841 44.7806 37.9346 44.6595C37.8921 44.5384 37.8638 44.403 37.8638 44.2605V25.4291C37.8638 23.7405 38.1611 22.1659 38.7559 20.7195C39.3506 19.2731 40.2426 17.9479 41.425 16.7509C42.6074 15.561 43.9172 14.6632 45.3544 14.0647C46.7846 13.4662 48.3351 13.167 50.006 13.167ZM54.6575 14.136C53.2344 13.5446 51.6839 13.2454 50.013 13.2454C48.3492 13.2454 46.8129 13.5446 45.3898 14.136C43.9667 14.7274 42.664 15.6251 41.4887 16.8079C40.3064 17.9977 39.4214 19.3159 38.8337 20.748C38.2461 22.1872 37.9487 23.7476 37.9487 25.4291V44.2534C37.9487 44.3887 37.97 44.5099 38.0124 44.6239C38.0549 44.7379 38.1186 44.8447 38.2036 44.9374C38.2956 45.0371 38.3948 45.1084 38.501 45.1582C38.6072 45.2081 38.7205 45.2366 38.8408 45.2366C38.9683 45.2366 39.0815 45.2081 39.1877 45.1582C39.2939 45.1084 39.386 45.0371 39.478 44.9374C39.57 44.8447 39.6408 44.7379 39.6833 44.6239C39.7258 44.5099 39.7541 44.3887 39.7541 44.2534V25.4291C39.7541 23.997 40.009 22.6717 40.5046 21.4534C41.0073 20.235 41.7578 19.1164 42.756 18.1117C43.7614 17.0929 44.8659 16.3305 46.0766 15.8175C47.2872 15.3116 48.597 15.0551 50.013 15.0551C51.429 15.0551 52.7459 15.3116 53.9566 15.8175C55.1673 16.3234 56.2718 17.0929 57.27 18.1117C58.2754 19.1164 59.0259 20.235 59.5286 21.4534C60.0312 22.6789 60.2861 24.0041 60.2861 25.4362C60.2861 26.8612 60.0312 28.1865 59.5286 29.4049C59.0259 30.6232 58.2754 31.7347 57.27 32.7394C56.2718 33.7511 55.1602 34.5064 53.9566 35.0122C52.7459 35.5181 51.429 35.7746 50.013 35.7746C49.7086 35.7746 49.4112 35.7604 49.1139 35.7319C48.8165 35.7034 48.5262 35.6535 48.243 35.5965C48.0944 35.5751 47.9598 35.5822 47.8395 35.6179C47.7191 35.6464 47.6129 35.7034 47.5209 35.796C47.4147 35.8886 47.3368 35.9884 47.2872 36.1095C47.2377 36.2235 47.2094 36.3589 47.2094 36.5014C47.2094 36.765 47.2731 36.9716 47.3934 37.1212C47.5138 37.2709 47.705 37.3706 47.9528 37.4134C48.328 37.4704 48.6962 37.5131 49.036 37.5416C49.3829 37.5701 49.7086 37.5844 50.013 37.5844C51.6839 37.5844 53.2344 37.2851 54.6575 36.6937C56.0806 36.1024 57.3833 35.2117 58.5657 34.0219C59.741 32.8391 60.626 31.5281 61.2207 30.096C61.8083 28.6639 62.1057 27.1106 62.1057 25.4362C62.1057 23.7547 61.8083 22.2015 61.2207 20.7622C60.633 19.323 59.748 18.0049 58.5657 16.815C57.3833 15.618 56.0806 14.7274 54.6575 14.136Z" fill="white"/>
<path fill-rule="evenodd" clip-rule="evenodd" d="M38.8337 45.7995C39.2444 45.7995 39.5913 45.6428 39.8957 45.3293C40.186 45.03 40.3347 44.6809 40.3347 44.2463V25.4291C40.3347 22.7216 41.2834 20.4131 43.1808 18.5036C45.0783 16.5941 47.358 15.6465 50.013 15.6465C52.6893 15.6465 54.969 16.5941 56.8665 18.5036C58.7639 20.4131 59.7126 22.7216 59.7126 25.4291C59.7126 28.1081 58.7639 30.4024 56.8665 32.3119C54.969 34.2214 52.6893 35.1761 50.013 35.1761C49.4537 35.1761 48.9015 35.1263 48.3422 35.0194C47.8678 34.941 47.4713 35.055 47.1456 35.3543C46.7916 35.6535 46.6217 36.0311 46.6217 36.4943C46.6217 37.3493 47.0324 37.8409 47.8536 37.9763C48.6537 38.1045 49.3688 38.1758 50.013 38.1758C53.5106 38.1758 56.4983 36.9289 58.9692 34.428C61.4543 31.9414 62.6933 28.9418 62.6933 25.4363C62.6933 21.9236 61.4543 18.9098 58.9692 16.4089C56.4983 13.908 53.5106 12.6611 50.013 12.6611C46.5297 12.6611 43.549 13.908 41.0639 16.4089C38.593 18.9098 37.3611 21.9236 37.3611 25.4363V44.2605C37.3611 44.6951 37.5027 45.0514 37.8 45.3649C38.0903 45.6499 38.4372 45.7995 38.8337 45.7995Z" fill="white"/>
<path fill-rule="evenodd" clip-rule="evenodd" d="M38.8337 45.7638C39.032 45.7638 39.2231 45.7282 39.393 45.6498C39.563 45.5715 39.7258 45.4575 39.8674 45.3078C40.009 45.1653 40.1152 45.0015 40.186 44.8305C40.2568 44.6523 40.2922 44.4671 40.2922 44.2533V25.4291C40.2922 24.0753 40.5329 22.8142 41.0073 21.6528C41.4816 20.4915 42.1967 19.437 43.1454 18.4751C44.0942 17.5203 45.142 16.8007 46.2819 16.3233C47.4288 15.846 48.6678 15.6037 50.006 15.6037C51.3512 15.6037 52.5972 15.8388 53.7442 16.3162C54.8912 16.7936 55.939 17.5132 56.8877 18.468C57.8364 19.4227 58.5515 20.4843 59.0259 21.6457C59.5002 22.8071 59.741 24.0611 59.741 25.422C59.741 26.7686 59.5002 28.0155 59.0259 29.1697C58.5515 30.324 57.8364 31.3785 56.8806 32.3332C55.9319 33.288 54.8841 34.0076 53.7371 34.4921C52.5902 34.9695 51.3441 35.2117 49.9989 35.2117C49.7228 35.2117 49.4396 35.1975 49.1634 35.169C48.8802 35.1405 48.6041 35.1048 48.328 35.0478C48.0944 35.0122 47.882 35.0193 47.6908 35.0763C47.4996 35.1333 47.3226 35.2331 47.1598 35.3756C46.9899 35.5181 46.8624 35.682 46.7775 35.8672C46.6925 36.0525 46.65 36.2591 46.65 36.48C46.65 36.9003 46.7492 37.2281 46.9474 37.4703C47.1456 37.7126 47.4501 37.8622 47.8466 37.9263C48.243 37.9905 48.6254 38.0403 48.9794 38.076C49.3334 38.1116 49.6732 38.1258 49.9989 38.1258C51.7406 38.1258 53.3619 37.8123 54.8487 37.1925C56.3355 36.5726 57.6948 35.6321 58.9268 34.3923C60.1658 33.1526 61.0932 31.7846 61.7092 30.2955C62.3252 28.7992 62.6367 27.1818 62.6367 25.4291C62.6367 23.6763 62.3252 22.0518 61.7092 20.5485C61.0932 19.0522 60.1587 17.6771 58.9268 16.4302C57.6948 15.1833 56.3355 14.25 54.8487 13.6301C53.3619 13.0102 51.7406 12.6967 49.9989 12.6967C48.2643 12.6967 46.65 13.0102 45.1632 13.6301C43.6764 14.25 42.3171 15.1905 41.0781 16.4373C39.8462 17.6842 38.9258 19.0593 38.3098 20.5556C37.6938 22.059 37.3894 23.6835 37.3894 25.4362V44.2605C37.3894 44.4742 37.4248 44.6666 37.4956 44.8447C37.5664 45.0228 37.6726 45.1867 37.8142 45.3363C37.9558 45.4788 38.1116 45.5928 38.2815 45.6641C38.4585 45.7282 38.6426 45.7638 38.8337 45.7638ZM39.4214 45.7211C39.2373 45.7995 39.0461 45.8422 38.8337 45.8422C38.6284 45.8422 38.4372 45.8066 38.2602 45.7282C38.0832 45.6498 37.9204 45.5358 37.7646 45.3862C37.616 45.2295 37.5027 45.0513 37.4319 44.8661C37.3611 44.6808 37.3186 44.4742 37.3186 44.2533V25.4291C37.3186 23.6692 37.6301 22.0305 38.2461 20.52C38.862 19.0095 39.7966 17.6272 41.0285 16.3732C42.2746 15.1192 43.641 14.1787 45.142 13.5517C46.6359 12.9247 48.2572 12.6112 50.006 12.6112C51.7618 12.6112 53.3902 12.9247 54.8841 13.5517C56.378 14.1787 57.7515 15.1192 58.9834 16.3732C60.2295 17.6272 61.164 19.0095 61.7871 20.52C62.4101 22.0305 62.7216 23.6692 62.7216 25.4291C62.7216 27.189 62.4101 28.8206 61.7871 30.324C61.164 31.8273 60.2295 33.2025 58.9834 34.4493C57.7444 35.7033 56.378 36.6438 54.877 37.2708C53.376 37.8978 51.7547 38.2113 49.9989 38.2113C49.6732 38.2113 49.3334 38.1971 48.9723 38.1615C48.6112 38.1258 48.236 38.076 47.8324 38.0118C47.4147 37.9406 47.0961 37.7838 46.8837 37.5273C46.6713 37.2708 46.5651 36.9288 46.5651 36.4871C46.5651 36.252 46.6076 36.0311 46.6996 35.8387C46.7916 35.6463 46.9262 35.4753 47.1032 35.3186C47.2731 35.169 47.4572 35.0621 47.6625 35.0051C47.8678 34.9481 48.0873 34.941 48.3351 34.9766C48.6112 35.0265 48.8873 35.0692 49.1634 35.0977C49.4396 35.1262 49.7157 35.1405 49.9918 35.1405C51.3299 35.1405 52.5618 34.9053 53.7017 34.428C54.8416 33.9506 55.8753 33.2381 56.824 32.2905C57.7656 31.3428 58.4807 30.2955 58.948 29.1483C59.4224 28.0083 59.656 26.7686 59.656 25.4291C59.656 24.0825 59.4224 22.8356 58.948 21.6813C58.4736 20.5342 57.7656 19.4797 56.824 18.5321C55.8824 17.5845 54.8416 16.872 53.7017 16.3946C52.5618 15.9243 51.3299 15.6892 49.9918 15.6892C48.6678 15.6892 47.4359 15.9243 46.3031 16.4017C45.1703 16.872 44.1296 17.5845 43.1879 18.5321C42.2463 19.4797 41.5383 20.5342 41.0639 21.6813C40.5896 22.8285 40.3559 24.0825 40.3559 25.4291V44.2533C40.3559 44.4742 40.3205 44.6737 40.2426 44.859C40.1648 45.0442 40.0586 45.2081 39.9028 45.3648C39.7683 45.5216 39.5984 45.6356 39.4214 45.7211Z" fill="white"/>
<path fill-rule="evenodd" clip-rule="evenodd" d="M50.006 18.0903C48.0095 18.0903 46.3032 18.81 44.8943 20.2421C43.4641 21.6742 42.749 23.4056 42.749 25.4291V44.2533C42.749 44.5312 42.8411 44.7663 43.011 44.9658C43.2092 45.1725 43.4358 45.2793 43.6977 45.2793C43.9526 45.2793 44.1721 45.1725 44.3633 44.9658C44.5615 44.7663 44.6465 44.5312 44.6465 44.2533V25.4291C44.6465 23.9186 45.1704 22.6361 46.2111 21.5745C47.2731 20.52 48.5334 19.9998 50.006 19.9998C51.4928 19.9998 52.7601 20.52 53.8221 21.5745C54.87 22.6361 55.3868 23.9257 55.3868 25.4291C55.3868 26.9111 54.87 28.1865 53.8221 29.2481C52.7601 30.3026 51.4999 30.8227 50.006 30.8227C49.5246 30.8227 48.9723 30.7443 48.3705 30.5805C48.059 30.4665 47.7829 30.495 47.5351 30.6945C47.2873 30.8868 47.1599 31.1505 47.1599 31.4925C47.1599 31.9413 47.3793 32.2263 47.7971 32.3617C48.5051 32.6111 49.2414 32.7322 49.9989 32.7322C52.0167 32.7322 53.723 32.0197 55.139 30.5805C56.5621 29.1626 57.2772 27.4455 57.2772 25.4291C57.2772 23.4056 56.5621 21.6742 55.139 20.2421C53.7372 18.81 52.0238 18.0903 50.006 18.0903Z" fill="white"/>
<path fill-rule="evenodd" clip-rule="evenodd" d="M50.006 18.126C49.0148 18.126 48.0944 18.3041 47.2448 18.6604C46.3952 19.0166 45.6235 19.551 44.9226 20.2635C44.2146 20.976 43.6765 21.7597 43.3225 22.6219C42.9685 23.484 42.7915 24.4174 42.7915 25.422V44.2462C42.7915 44.3816 42.8127 44.5027 42.8552 44.6167C42.8977 44.7307 42.9614 44.8376 43.0464 44.9302C43.1384 45.03 43.2446 45.1012 43.3508 45.1511C43.457 45.201 43.5774 45.2295 43.7048 45.2295C43.8252 45.2295 43.9385 45.201 44.0447 45.1511C44.1509 45.1012 44.25 45.03 44.3349 44.9302C44.427 44.8376 44.4978 44.7307 44.5403 44.6167C44.5827 44.5027 44.604 44.3816 44.604 44.2462V25.4291C44.604 24.6739 44.7385 23.9685 45.0005 23.3201C45.2624 22.6717 45.6589 22.0804 46.1828 21.546C46.7138 21.0187 47.3015 20.6197 47.9387 20.3561C48.5759 20.0925 49.2626 19.9571 49.9989 19.9571C50.7494 19.9571 51.4433 20.0854 52.0805 20.3561C52.7177 20.6197 53.3053 21.0187 53.8434 21.546C54.3673 22.0804 54.7638 22.6717 55.0257 23.313C55.2877 23.9614 55.4222 24.6667 55.4222 25.4291C55.4222 26.1772 55.2948 26.8684 55.0257 27.5096C54.7638 28.1509 54.3673 28.7351 53.8434 29.2695C53.3124 29.7967 52.7247 30.1957 52.0805 30.4594C51.4433 30.723 50.7494 30.8584 49.9989 30.8584C49.7511 30.8584 49.4821 30.837 49.206 30.7942C48.9369 30.7515 48.6537 30.6945 48.3564 30.609C48.2077 30.552 48.0661 30.5377 47.9316 30.552C47.7971 30.5662 47.6767 30.6232 47.5563 30.7159C47.436 30.8085 47.3439 30.9154 47.2873 31.0436C47.2307 31.1719 47.1953 31.3144 47.1953 31.4782C47.1953 31.692 47.2448 31.8701 47.351 32.0055C47.4501 32.148 47.6059 32.2477 47.8112 32.3119C48.1581 32.433 48.5192 32.5256 48.8803 32.5897C49.2485 32.6539 49.6237 32.6824 50.006 32.6824C51.0114 32.6824 51.9389 32.5042 52.7885 32.148C53.6381 31.7917 54.4169 31.2574 55.1178 30.5377C55.8258 29.8324 56.3568 29.0557 56.7108 28.2007C57.0648 27.3457 57.2418 26.4195 57.2418 25.4149C57.2418 24.4102 57.0648 23.4769 56.7108 22.6147C56.3568 21.7526 55.8258 20.9689 55.1178 20.2564C54.4169 19.5439 53.6381 19.0095 52.7885 18.6532C51.9389 18.3041 51.0114 18.126 50.006 18.126ZM47.2165 18.5891C48.0732 18.2257 49.0007 18.0476 50.006 18.0476C51.0185 18.0476 51.953 18.2257 52.8168 18.5891C53.6805 18.9525 54.4593 19.494 55.1744 20.2136C55.8895 20.9332 56.4276 21.7312 56.7816 22.6005C57.1427 23.4697 57.3197 24.4174 57.3197 25.4291C57.3197 26.4409 57.1427 27.3814 56.7816 28.2435C56.4205 29.1056 55.8824 29.8965 55.1673 30.609C54.4593 31.3357 53.6735 31.8701 52.8097 32.2335C51.9459 32.5969 51.0114 32.775 49.9989 32.775C49.6166 32.775 49.2343 32.7465 48.8661 32.6824C48.498 32.6182 48.1369 32.5256 47.7829 32.4045C47.5634 32.3332 47.3935 32.2192 47.2873 32.0696C47.174 31.92 47.1174 31.7276 47.1174 31.4996C47.1174 31.3215 47.1528 31.1647 47.2165 31.0294C47.2802 30.894 47.3793 30.7729 47.5068 30.6731C47.6342 30.5734 47.7758 30.5092 47.9174 30.495C48.059 30.4736 48.2148 30.495 48.3776 30.552C48.6679 30.6304 48.9511 30.6945 49.2131 30.7301C49.4892 30.7729 49.7511 30.7942 49.9989 30.7942C50.7423 30.7942 51.422 30.666 52.0521 30.4024C52.6823 30.1387 53.2628 29.754 53.7867 29.2267C54.3036 28.6995 54.693 28.1224 54.9549 27.4882C55.2169 26.8541 55.3443 26.1701 55.3443 25.4362C55.3443 24.6881 55.2169 23.9899 54.9549 23.3557C54.693 22.7216 54.3107 22.1374 53.7867 21.6101C53.2628 21.09 52.6823 20.6981 52.0521 20.4345C51.422 20.1709 50.7353 20.0426 49.9989 20.0426C49.2697 20.0426 48.59 20.1709 47.967 20.4345C47.3369 20.6981 46.7634 21.0829 46.2324 21.6101C45.7155 22.1374 45.3261 22.7216 45.0642 23.3629C44.8022 23.997 44.6748 24.6952 44.6748 25.4434V44.2676C44.6748 44.4101 44.6535 44.5455 44.604 44.6666C44.5544 44.7877 44.4836 44.9017 44.3774 45.0015C44.2783 45.1084 44.1721 45.1867 44.0588 45.2437C43.9455 45.3007 43.8181 45.3292 43.6836 45.3292C43.5491 45.3292 43.4216 45.3007 43.3013 45.2437C43.1809 45.1867 43.0747 45.1084 42.9756 45.0015C42.8835 44.9017 42.8198 44.7877 42.7703 44.6666C42.7278 44.5455 42.6995 44.4101 42.6995 44.2676V25.4291C42.6995 24.4102 42.8765 23.4697 43.2375 22.6005C43.5986 21.7312 44.1367 20.9332 44.8518 20.2136C45.581 19.494 46.3598 18.9525 47.2165 18.5891Z" fill="white"/>
<path fill-rule="evenodd" clip-rule="evenodd" d="M43.7048 45.7995C43.3013 45.7995 42.9473 45.6499 42.6499 45.3506C42.3525 45.0371 42.2039 44.6737 42.2039 44.2462V25.4291C42.2039 23.256 42.9685 21.3964 44.4978 19.8645C46.0271 18.3112 47.8608 17.5417 50.006 17.5417C52.1654 17.5417 53.9991 18.3112 55.5213 19.8645C57.0506 21.4035 57.8082 23.256 57.8082 25.4291C57.8082 27.5951 57.0506 29.4405 55.5213 30.9795C53.9991 32.5042 52.1654 33.2666 50.006 33.2666C49.1847 33.2666 48.3847 33.1384 47.6271 32.889C46.9475 32.6681 46.6147 32.1979 46.6147 31.4854C46.6147 30.9724 46.8129 30.5591 47.2094 30.267C47.6201 29.9535 48.059 29.8822 48.5334 30.0461C49.0927 30.2029 49.5883 30.2884 50.006 30.2884C51.3441 30.2884 52.484 29.8181 53.4257 28.8705C54.3815 27.9086 54.8629 26.7544 54.8629 25.422C54.8629 24.0682 54.3815 22.9069 53.4257 21.9592C52.484 21.0045 51.3512 20.52 50.006 20.52C48.6821 20.52 47.5422 21.0045 46.5864 21.9592C45.6447 22.9069 45.1775 24.0682 45.1775 25.422V44.2462C45.1775 44.6809 45.0288 45.03 44.7314 45.3293C44.4482 45.6427 44.1013 45.7995 43.7048 45.7995Z" fill="white"/>
<path fill-rule="evenodd" clip-rule="evenodd" d="M43.7048 45.8423C43.4995 45.8423 43.3013 45.8067 43.1243 45.7283C42.9402 45.6499 42.7773 45.5359 42.6287 45.3863C42.48 45.2295 42.3667 45.0514 42.2888 44.8662C42.2109 44.6809 42.1755 44.4743 42.1755 44.2534V25.4291C42.1755 24.339 42.3667 23.3273 42.7561 22.3939C43.1384 21.4605 43.719 20.6055 44.4836 19.836C45.2483 19.0594 46.0979 18.4751 47.0183 18.0833C47.9387 17.6914 48.944 17.499 50.0202 17.499C51.1034 17.499 52.1088 17.6914 53.0363 18.0833C53.9567 18.4751 54.8063 19.0594 55.5709 19.836C56.3355 20.6055 56.9161 21.4605 57.2984 22.3939C57.6807 23.3273 57.8719 24.339 57.8719 25.4291C57.8719 26.5193 57.6807 27.5239 57.2984 28.4573C56.9161 29.3835 56.3426 30.2385 55.5709 31.008C54.8063 31.7704 53.9637 32.3475 53.0363 32.7323C52.1088 33.117 51.1105 33.3094 50.0202 33.3094C49.6095 33.3094 49.206 33.2738 48.8095 33.2168C48.4059 33.1526 48.0165 33.06 47.6342 32.9318C47.2873 32.8178 47.0253 32.6396 46.8554 32.4045C46.6784 32.1623 46.5935 31.863 46.5935 31.4925C46.5935 31.2289 46.643 30.9938 46.7492 30.78C46.8483 30.5734 47.0041 30.3881 47.2094 30.2385C47.4218 30.0818 47.6413 29.982 47.8679 29.9464C48.0944 29.9108 48.3281 29.9321 48.5688 30.0177C48.8449 30.096 49.1069 30.1602 49.3547 30.1958C49.5954 30.2385 49.8219 30.2528 50.0343 30.2528C50.6999 30.2528 51.3158 30.1388 51.8751 29.9037C52.4415 29.6685 52.9513 29.3194 53.4186 28.8492C53.8929 28.3718 54.2469 27.8445 54.4877 27.2745C54.7284 26.7045 54.8417 26.0918 54.8417 25.4291C54.8417 24.7594 54.7213 24.1324 54.4877 23.5624C54.2469 22.9924 53.8929 22.4651 53.4186 21.9949C52.9513 21.5246 52.4345 21.1613 51.8751 20.9261C51.3087 20.691 50.6999 20.5699 50.0343 20.5699C49.3759 20.5699 48.767 20.691 48.2006 20.9261C47.6342 21.1613 47.1174 21.5246 46.643 21.9949C46.1757 22.4651 45.8288 22.9853 45.5952 23.5553C45.3615 24.1253 45.2483 24.7523 45.2483 25.4291V44.2534C45.2483 44.4743 45.2129 44.6738 45.135 44.859C45.0571 45.0443 44.9438 45.2082 44.7951 45.3649C44.6465 45.5217 44.4836 45.6428 44.2995 45.7211C44.0942 45.7995 43.9031 45.8423 43.7048 45.8423ZM43.1526 45.657C43.3225 45.7283 43.5066 45.7639 43.7048 45.7639C43.896 45.7639 44.0801 45.7283 44.25 45.6499C44.4199 45.5715 44.5757 45.4575 44.7173 45.3079C44.8589 45.1654 44.9721 45.0015 45.0429 44.8305C45.1137 44.6524 45.1491 44.4672 45.1491 44.2534V25.4291C45.1491 24.7451 45.2695 24.111 45.5031 23.5268C45.7368 22.9425 46.0908 22.4153 46.5651 21.9379C47.0466 21.4605 47.5705 21.0971 48.144 20.8549C48.7175 20.6126 49.3405 20.4915 50.006 20.4915C50.6786 20.4915 51.3017 20.6126 51.8822 20.8549C52.4557 21.0971 52.9796 21.4605 53.454 21.9379C53.9354 22.4153 54.2965 22.9425 54.5372 23.5268C54.7779 24.111 54.8983 24.7451 54.8983 25.422C54.8983 26.0918 54.7779 26.7188 54.5372 27.2959C54.2965 27.873 53.9354 28.4074 53.454 28.8919C52.9796 29.3693 52.4557 29.7255 51.8822 29.9606C51.3087 30.1958 50.6857 30.3169 50.0131 30.3169C49.8007 30.3169 49.5741 30.2955 49.3263 30.2528C49.0785 30.21 48.8095 30.153 48.5334 30.0675C48.2997 29.9892 48.0803 29.9606 47.8679 29.9963C47.6555 30.0319 47.4501 30.1245 47.2448 30.2813C47.0537 30.4238 46.905 30.5948 46.8129 30.7943C46.7138 30.9938 46.6713 31.2218 46.6713 31.4711C46.6713 31.8203 46.7563 32.1053 46.9191 32.3333C47.082 32.5613 47.3298 32.7252 47.6625 32.832C48.0449 32.9603 48.4343 33.0529 48.8307 33.117C49.2272 33.1811 49.6237 33.2097 50.0343 33.2097C51.1105 33.2097 52.1017 33.0173 53.015 32.6397C53.9283 32.262 54.7638 31.692 55.5213 30.9296C56.2789 30.1673 56.8524 29.3194 57.2276 28.4003C57.6099 27.4811 57.794 26.4837 57.794 25.4007C57.794 24.3177 57.6029 23.313 57.2276 22.3939C56.8524 21.4676 56.2789 20.6269 55.5213 19.8645C54.7638 19.095 53.9283 18.5108 53.015 18.126C52.1017 17.7413 51.1034 17.5489 50.0343 17.5489C48.9653 17.5489 47.9741 17.7413 47.0607 18.126C46.1474 18.5108 45.312 19.0879 44.5473 19.8645C43.7898 20.6269 43.2163 21.4748 42.834 22.401C42.4517 23.3201 42.2605 24.3248 42.2605 25.4078V44.232C42.2605 44.4458 42.2959 44.6382 42.3667 44.8163C42.4375 44.9944 42.5508 45.1583 42.6924 45.3079C42.8198 45.4718 42.9756 45.5787 43.1526 45.657Z" fill="white"/>
<path fill-rule="evenodd" clip-rule="evenodd" d="M30.5715 13.4092C30.4653 13.4092 30.3662 13.4235 30.2812 13.4591C30.2034 13.4947 30.1255 13.5446 30.0618 13.6087C29.991 13.6871 29.9343 13.7726 29.906 13.8581C29.8706 13.9436 29.8564 14.0362 29.8564 14.136V44.3175C29.8564 44.5811 29.9131 44.7663 30.0334 44.8875C30.1538 45.0086 30.3379 45.0656 30.5998 45.0656C30.8547 45.0656 31.0388 45.0086 31.1592 44.8875C31.2724 44.7663 31.3362 44.5811 31.3362 44.3175V14.136C31.3362 14.0362 31.322 13.9507 31.2866 13.8652C31.2512 13.7797 31.1946 13.6942 31.1167 13.6158C31.0459 13.5517 30.9609 13.4947 30.876 13.4662C30.7698 13.4306 30.6777 13.4092 30.5715 13.4092ZM30.1255 13.0815C30.26 13.0245 30.4087 12.996 30.5715 12.996C30.7273 12.996 30.876 13.0245 31.0105 13.0743C31.145 13.1313 31.2724 13.2097 31.3857 13.3166L31.3928 13.3237C31.5061 13.4448 31.5981 13.566 31.6548 13.7013C31.7114 13.8367 31.7397 13.9863 31.7397 14.136V44.3175C31.7397 44.6951 31.6406 44.9801 31.4424 45.1796C31.2441 45.3791 30.9609 45.4789 30.5928 45.4789C30.2175 45.4789 29.9343 45.3791 29.7361 45.1796C29.5378 44.9801 29.4387 44.6951 29.4387 44.3175V14.136C29.4387 13.9863 29.467 13.8438 29.5166 13.7085C29.5662 13.5731 29.6511 13.4448 29.7573 13.3308L29.7644 13.3237C29.8706 13.2168 29.991 13.1313 30.1255 13.0815Z" fill="white" stroke="white" stroke-width="0.4799" stroke-miterlimit="22.9256"/>
<path fill-rule="evenodd" clip-rule="evenodd" d="M30.5928 46.0133C30.3591 46.0133 30.1396 45.9705 29.9414 45.885C29.7361 45.7995 29.552 45.6713 29.3892 45.5074C29.2263 45.3506 29.0989 45.1654 29.0139 44.973C28.929 44.7735 28.8865 44.5598 28.8865 44.3246V14.136C28.8865 13.908 28.929 13.7014 29.0139 13.5019C29.0989 13.3024 29.2192 13.1243 29.3892 12.9604C29.5449 12.7894 29.729 12.6611 29.9272 12.5756C30.1255 12.4901 30.345 12.4474 30.5786 12.4474C30.8052 12.4474 31.0246 12.4901 31.2229 12.5756C31.4282 12.6611 31.6123 12.7894 31.7751 12.9533C31.938 13.1171 32.0654 13.3024 32.1504 13.5019C32.2353 13.7014 32.2778 13.9151 32.2778 14.136V44.3175C32.2778 44.5526 32.2353 44.7664 32.1504 44.9659C32.0654 45.1654 31.938 45.3435 31.7751 45.5003C31.6194 45.6641 31.4424 45.7924 31.2441 45.8779C31.0388 45.9634 30.8264 46.0133 30.5928 46.0133ZM30.0972 45.5003C30.2458 45.5644 30.4158 45.5929 30.5928 45.5929C30.7698 45.5929 30.9255 45.5644 31.0742 45.5003C31.2229 45.4361 31.3574 45.3435 31.4778 45.2153L31.4848 45.2081C31.6123 45.087 31.7043 44.9516 31.768 44.8091C31.8318 44.6524 31.8601 44.4956 31.8601 44.3175V14.136C31.8601 13.965 31.8318 13.8083 31.768 13.6658C31.7043 13.5161 31.6052 13.3808 31.4778 13.2454C31.3503 13.1171 31.2087 13.0174 31.06 12.9533C30.9114 12.8891 30.7485 12.8606 30.5715 12.8606C30.3945 12.8606 30.2317 12.8891 30.083 12.9533C29.9343 13.0174 29.7998 13.11 29.6794 13.2383C29.552 13.3665 29.4529 13.509 29.3892 13.6586C29.3254 13.8083 29.2971 13.965 29.2971 14.1289V44.3175C29.2971 44.4956 29.3254 44.6524 29.3892 44.802C29.4529 44.9516 29.5449 45.087 29.6724 45.2081H29.6794C29.8069 45.3364 29.9485 45.4361 30.0972 45.5003Z" fill="white" stroke="white" stroke-width="0.4799" stroke-miterlimit="22.9256"/>
<path fill-rule="evenodd" clip-rule="evenodd" d="M5.98265 13.4092C5.88353 13.4092 5.79149 13.4235 5.71361 13.4591C5.63573 13.4947 5.55785 13.5446 5.49413 13.6087C5.42333 13.6871 5.37377 13.7726 5.33837 13.8581C5.30297 13.9436 5.28881 14.0362 5.28881 14.136V44.3175C5.28881 44.5811 5.34545 44.7735 5.45873 44.8875C5.57201 45.0015 5.75609 45.0656 6.00389 45.0656C6.11009 45.0656 6.20213 45.0442 6.29417 45.0086C6.37913 44.973 6.46409 44.916 6.54197 44.8447C6.61277 44.7663 6.66233 44.6808 6.69773 44.5953C6.73313 44.5098 6.74729 44.4172 6.74729 44.3175V14.136C6.74729 14.0362 6.72605 13.9507 6.69065 13.8652C6.65525 13.7797 6.59861 13.6942 6.52073 13.6158C6.44285 13.5517 6.36497 13.4947 6.27293 13.4662C6.18797 13.4306 6.08885 13.4092 5.98265 13.4092ZM5.55785 13.0815C5.69237 13.0245 5.83397 12.996 5.98265 12.996C6.13841 12.996 6.28709 13.0245 6.42161 13.0815C6.55613 13.1385 6.68357 13.2168 6.80393 13.3166L6.81809 13.3308C6.93137 13.4448 7.01633 13.5731 7.07297 13.7085C7.12961 13.8438 7.16501 13.9935 7.16501 14.1431V44.3175C7.16501 44.4671 7.13669 44.6096 7.08005 44.745C7.02341 44.8803 6.94553 45.0015 6.84641 45.1226L6.83225 45.1368C6.71897 45.2508 6.59153 45.3363 6.44993 45.3933C6.30833 45.4503 6.15965 45.486 6.00389 45.486C5.63573 45.486 5.35961 45.3862 5.16137 45.1867C4.97021 44.9872 4.87109 44.7022 4.87109 44.3246V14.136C4.87109 13.9863 4.89941 13.8438 4.95605 13.7085C5.00561 13.5731 5.09057 13.452 5.18969 13.338L5.19677 13.3308C5.30297 13.2168 5.42333 13.1313 5.55785 13.0815Z" fill="white" stroke="white" stroke-width="0.4799" stroke-miterlimit="22.9256"/>
<path fill-rule="evenodd" clip-rule="evenodd" d="M6.00389 46.0133C5.77733 46.0133 5.56493 45.9705 5.36669 45.885C5.16845 45.7995 4.98437 45.6713 4.82153 45.5074C4.65869 45.3506 4.53125 45.1725 4.45337 44.973C4.36841 44.7735 4.32593 44.5526 4.32593 44.3246V14.136C4.32593 13.9151 4.36841 13.7014 4.44629 13.5019C4.52417 13.3024 4.64453 13.1243 4.80029 12.9604L4.80737 12.9533C4.97021 12.7894 5.15429 12.6611 5.35253 12.5756C5.55077 12.4901 5.76317 12.4474 5.98973 12.4474C6.22337 12.4474 6.44285 12.4901 6.64817 12.5756C6.85349 12.6611 7.04465 12.7894 7.21457 12.9533L7.22165 12.9604C7.38449 13.1243 7.51193 13.3095 7.58981 13.509C7.67477 13.7085 7.71725 13.9223 7.71725 14.1503V44.3175C7.71725 44.5526 7.67477 44.7664 7.58981 44.9659C7.50485 45.1654 7.38449 45.3435 7.21457 45.5003C7.04465 45.6641 6.86765 45.7924 6.66233 45.8779C6.45701 45.9634 6.23753 46.0133 6.00389 46.0133ZM5.52953 45.5003C5.67821 45.5644 5.83397 45.5929 6.00389 45.5929C6.18089 45.5929 6.35081 45.5573 6.49949 45.5003C6.64817 45.4361 6.78977 45.3364 6.92429 45.2081C7.05173 45.087 7.14377 44.9588 7.20041 44.8091C7.26413 44.6595 7.29245 44.4956 7.29245 44.3175V14.136C7.29245 13.965 7.26413 13.8083 7.20041 13.6586C7.13669 13.5161 7.04465 13.3736 6.91721 13.2454C6.78269 13.1171 6.63401 13.0174 6.47825 12.9533C6.32249 12.8891 6.15965 12.8606 5.97557 12.8606C5.80565 12.8606 5.64281 12.8891 5.50121 12.9533C5.35253 13.0174 5.21093 13.1171 5.08349 13.2454C4.96313 13.3736 4.87817 13.509 4.82153 13.6586C4.76489 13.8083 4.73657 13.965 4.73657 14.1431V44.3175C4.73657 44.4956 4.76489 44.6595 4.82861 44.8091C4.89233 44.9516 4.98437 45.087 5.10473 45.2081H5.11181C5.23925 45.3364 5.38085 45.4361 5.52953 45.5003Z" fill="white" stroke="white" stroke-width="0.4799" stroke-miterlimit="22.9256"/>
<path fill-rule="evenodd" clip-rule="evenodd" d="M15.5901 29.8751C15.3281 29.8751 15.144 29.9321 15.0237 30.0533C14.9033 30.1744 14.8467 30.3596 14.8467 30.6233C14.8467 30.8726 14.9033 31.0579 15.0237 31.1719C15.144 31.2859 15.3281 31.3429 15.5901 31.3429H24.9711V44.3104C24.9711 44.574 25.0277 44.7593 25.1481 44.8804C25.2684 45.0015 25.4525 45.0585 25.7145 45.0585C25.9764 45.0585 26.1605 45.0015 26.2809 44.8804C26.4012 44.7593 26.4579 44.574 26.4579 44.3104V14.136C26.4579 14.0363 26.4366 13.9508 26.4012 13.8653C26.3658 13.7798 26.3092 13.6943 26.2313 13.6159C26.1605 13.5518 26.0756 13.5019 25.9906 13.4663C25.8986 13.4306 25.7994 13.4164 25.6932 13.4164C25.5941 13.4164 25.5092 13.4306 25.4242 13.4663C25.3392 13.5019 25.2684 13.5518 25.1976 13.6159C25.1198 13.6943 25.0631 13.7798 25.0277 13.8653C24.9923 13.9508 24.9711 14.0363 24.9711 14.136V24.9803H15.5901C15.3281 24.9803 15.144 25.0373 15.0237 25.1584C14.9033 25.2795 14.8467 25.4648 14.8467 25.7284C14.8467 25.992 14.9033 26.1773 15.0237 26.2984C15.144 26.4195 15.3281 26.4765 15.5901 26.4765H24.9711V29.8823H15.5901V29.8751ZM14.7334 29.7611C14.9316 29.5616 15.2148 29.4619 15.5901 29.4619H24.5604V26.8826H15.5901C15.2148 26.8826 14.9316 26.7829 14.7334 26.5834C14.5352 26.3839 14.436 26.0989 14.436 25.7213C14.436 25.3436 14.5352 25.0586 14.7334 24.8591C14.9316 24.6596 15.2148 24.5599 15.5901 24.5599H24.5604V14.136C24.5604 13.9864 24.5888 13.8368 24.6525 13.7014C24.7091 13.566 24.7941 13.4449 24.9074 13.3238L24.9144 13.3166C25.0206 13.2098 25.141 13.1314 25.2755 13.0744C25.41 13.0174 25.5516 12.9889 25.7003 12.9889C25.8561 12.9889 26.0048 13.0174 26.1464 13.0673C26.288 13.1243 26.4154 13.2026 26.5287 13.3095L26.5358 13.3166C26.649 13.4306 26.734 13.5589 26.7906 13.6871C26.8473 13.8225 26.8827 13.9721 26.8827 14.1218V44.3175C26.8827 44.6951 26.7836 44.9801 26.5853 45.1796C26.3871 45.3791 26.1039 45.4789 25.7286 45.4789C25.3534 45.4789 25.0702 45.3791 24.872 45.1796C24.6737 44.9801 24.5746 44.6951 24.5746 44.3175V31.7633H15.5901C15.2219 31.7633 14.9316 31.6635 14.7334 31.4711C14.5352 31.2716 14.436 30.9938 14.436 30.6233C14.436 30.2456 14.5352 29.9606 14.7334 29.7611Z" fill="white" stroke="white" stroke-width="0.4799" stroke-miterlimit="22.9256"/>
<path fill-rule="evenodd" clip-rule="evenodd" d="M25.7145 46.0133C25.4808 46.0133 25.2613 45.9705 25.0631 45.885C24.8649 45.7995 24.6879 45.6713 24.525 45.5074C24.3622 45.3506 24.2347 45.1725 24.1569 44.973C24.0719 44.7735 24.0294 44.5526 24.0294 44.3246V32.319H15.5901C15.3564 32.319 15.144 32.2763 14.9387 32.1908C14.7405 32.1053 14.5564 31.9841 14.3865 31.8131V31.806C14.2307 31.635 14.1103 31.4569 14.0254 31.2574C13.9475 31.0579 13.905 30.8441 13.905 30.6161C13.905 30.381 13.9475 30.1673 14.0254 29.9606C14.1033 29.7611 14.2236 29.5759 14.3794 29.4049L14.3865 29.3978C14.5493 29.2339 14.7334 29.1056 14.9387 29.0273C15.144 28.9418 15.3564 28.899 15.5901 28.899H24.0294V27.4028H15.5901C15.3635 27.4028 15.144 27.36 14.9458 27.2816C14.7476 27.2033 14.5635 27.0821 14.3935 26.9183L14.3865 26.9111C14.2307 26.7473 14.1103 26.562 14.0325 26.3554C13.9546 26.1559 13.9121 25.935 13.9121 25.707C13.9121 25.4719 13.9546 25.2581 14.0325 25.0515C14.1103 24.8449 14.2307 24.6596 14.3935 24.4958L14.4006 24.4886C14.5705 24.3319 14.7546 24.2108 14.9529 24.1253C15.1511 24.0469 15.3706 24.0041 15.5971 24.0041H24.0365V14.136C24.0365 13.9151 24.079 13.7014 24.1569 13.5019C24.2347 13.3024 24.3551 13.1243 24.5109 12.9604L24.5179 12.9533C24.6808 12.7894 24.8649 12.6611 25.0631 12.5756C25.2613 12.4901 25.4737 12.4474 25.7003 12.4474C25.9339 12.4474 26.1534 12.4901 26.3587 12.5756C26.5641 12.6611 26.7552 12.7894 26.9251 12.9533L26.9322 12.9604C27.0951 13.1243 27.2225 13.3095 27.3004 13.509C27.3853 13.7085 27.4278 13.9223 27.4278 14.1503V44.3175C27.4278 44.5526 27.3853 44.7664 27.3004 44.9659C27.2154 45.1654 27.0951 45.3435 26.9251 45.5003C26.7623 45.6641 26.5782 45.7924 26.3729 45.8779C26.1676 45.9634 25.9481 46.0133 25.7145 46.0133ZM25.2259 45.5003C25.3746 45.5644 25.5375 45.5929 25.7145 45.5929C25.8915 45.5929 26.0614 45.5644 26.2101 45.5003C26.3658 45.4361 26.5003 45.3364 26.6349 45.2081C26.7623 45.087 26.8543 44.9588 26.911 44.8091C26.9747 44.6595 27.003 44.4956 27.003 44.3175V14.136C27.003 13.965 26.9747 13.8083 26.911 13.6586C26.8473 13.5161 26.7552 13.3736 26.6278 13.2454C26.4933 13.1171 26.3446 13.0174 26.1888 12.9533C26.0331 12.8891 25.8702 12.8606 25.6861 12.8606C25.5162 12.8606 25.3534 12.8891 25.2118 12.9533C25.0631 13.0174 24.9215 13.1171 24.7941 13.2454C24.6737 13.3736 24.5887 13.509 24.5321 13.6586C24.4755 13.8083 24.4471 13.965 24.4471 14.1431V24.4388H15.5901C15.4131 24.4388 15.2502 24.4673 15.1015 24.5314C14.9529 24.5884 14.8113 24.681 14.6909 24.8021C14.5705 24.9304 14.4785 25.0729 14.4148 25.2296C14.3582 25.3793 14.3227 25.5503 14.3227 25.7284C14.3227 25.9065 14.3511 26.0704 14.4148 26.22C14.4785 26.3696 14.5705 26.5121 14.6909 26.6475C14.8183 26.7686 14.9529 26.8541 15.1015 26.9183C15.2502 26.9753 15.4131 27.0109 15.5901 27.0109H24.4471V29.3336H15.5901C15.4131 29.3336 15.2502 29.3621 15.0945 29.4263C14.9458 29.4904 14.8042 29.583 14.6767 29.7113C14.5564 29.8395 14.4714 29.982 14.4077 30.1316C14.344 30.2813 14.3157 30.4523 14.3157 30.6304C14.3157 30.8014 14.344 30.9653 14.4077 31.1149C14.4714 31.2645 14.5564 31.3999 14.6767 31.5281C14.8042 31.6564 14.9458 31.749 15.0945 31.8131C15.2431 31.8773 15.406 31.9058 15.5901 31.9058H24.4471V44.3175C24.4471 44.4956 24.4755 44.6595 24.5392 44.8091C24.6029 44.9516 24.6949 45.087 24.8153 45.2081L24.8224 45.2153C24.9498 45.3435 25.0773 45.4361 25.2259 45.5003Z" fill="white" stroke="white" stroke-width="0.4799" stroke-miterlimit="22.9256"/>
<path fill-rule="evenodd" clip-rule="evenodd" d="M10.875 13.4092C10.613 13.4092 10.4219 13.4662 10.3086 13.5802C10.1953 13.6942 10.1316 13.8795 10.1316 14.1288V44.3175C10.1316 44.5811 10.1882 44.7663 10.3086 44.8875C10.4289 45.0086 10.613 45.0656 10.875 45.0656C11.1369 45.0656 11.321 45.0086 11.4414 44.8875C11.5617 44.7663 11.6184 44.5811 11.6184 44.3175V14.136C11.6184 13.8795 11.5617 13.7013 11.4414 13.5873C11.321 13.4733 11.1369 13.4092 10.875 13.4092ZM10.0183 13.2881C10.2165 13.0957 10.4997 12.996 10.875 12.996C11.2502 12.996 11.5334 13.0957 11.7317 13.2881C11.9299 13.4876 12.029 13.7655 12.029 14.136V44.3175C12.029 44.6951 11.9299 44.9801 11.7317 45.1796C11.5334 45.3791 11.2502 45.4789 10.875 45.4789C10.4997 45.4789 10.2165 45.3791 10.0183 45.1796C9.82007 44.9801 9.72095 44.6951 9.72095 44.3175V14.136C9.72095 13.7655 9.82007 13.4876 10.0183 13.2881Z" fill="white" stroke="white" stroke-width="0.4799" stroke-miterlimit="22.9256"/>
<path fill-rule="evenodd" clip-rule="evenodd" d="M10.875 46.0133C10.6484 46.0133 10.4289 45.9705 10.2307 45.885C10.0254 45.7995 9.8413 45.6713 9.67846 45.5074C9.50854 45.3506 9.38818 45.1654 9.30322 44.973C9.21826 44.7735 9.17578 44.5598 9.17578 44.3246V14.136C9.17578 13.908 9.21826 13.7014 9.30322 13.5019C9.38818 13.3024 9.51562 13.1171 9.67846 12.9533C9.8413 12.7894 10.0254 12.6611 10.2307 12.5756C10.436 12.4901 10.6484 12.4474 10.875 12.4474C11.1086 12.4474 11.3281 12.4901 11.5263 12.5756C11.7246 12.6611 11.9087 12.7894 12.0644 12.9604C12.2273 13.1243 12.3547 13.3095 12.4397 13.5019C12.5246 13.7014 12.5671 13.9151 12.5671 14.136V44.3175C12.5671 44.5526 12.5246 44.7664 12.4397 44.9659C12.3547 45.1654 12.2273 45.3435 12.0644 45.5003C11.9087 45.6641 11.7246 45.7924 11.5263 45.8779C11.321 45.9634 11.1086 46.0133 10.875 46.0133ZM10.3865 45.5003C10.5351 45.5644 10.698 45.5929 10.875 45.5929C11.052 45.5929 11.2148 45.5644 11.3635 45.5003C11.5122 45.4361 11.6467 45.3435 11.7671 45.2153L11.7741 45.2081C11.9016 45.087 11.9936 44.9516 12.0573 44.802C12.1211 44.6524 12.1494 44.4956 12.1494 44.3175V14.136C12.1494 13.965 12.1211 13.8083 12.0573 13.6658C11.9936 13.5161 11.8945 13.3736 11.7671 13.2454C11.6467 13.1171 11.5122 13.0245 11.3635 12.9604C11.2148 12.8963 11.052 12.8678 10.875 12.8678C10.698 12.8678 10.5351 12.8963 10.3865 12.9604C10.2378 13.0245 10.0962 13.1243 9.96874 13.2525C9.8413 13.3808 9.74218 13.5233 9.67846 13.6729C9.61474 13.8225 9.58642 13.9793 9.58642 14.1431V44.3175C9.58642 44.4956 9.61474 44.6524 9.67846 44.802C9.74218 44.9516 9.83422 45.087 9.96166 45.2081H9.96874C10.0962 45.3364 10.2378 45.4361 10.3865 45.5003Z" fill="white" stroke="white" stroke-width="0.4799" stroke-miterlimit="22.9256"/>
</svg>
